# xmcd
#
# Track frame offsets:
#	150
#	11614
#	22411
#	37006
#	51602
#	64679
#	76589
#	85133
#	98503
#	113105
#	133478
#	146205
#
# Disc length: 2120 seconds
# Revision: 0
# Processed by: cddbd v1.5.2PL0 Copyright (c) Steve Scherf et al.
# Submitted via: dBpowerAMP V12.0
#
DISCID=a808460c
DTITLE=Larry Sparks - New Moon Over My Shoulder
DYEAR=2019
DGENRE=Bluegrass
TTITLE0=Down in Union County
TTITLE1=I'm Really Leaving
TTITLE2=Henry Hill
TTITLE3=Take Me Back to West Virgina
TTITLE4=New Highway
TTITLE5=I Was Wrong
TTITLE6=Peacock Rag
TTITLE7=There's a New Moon Over My Shoulder
TTITLE8=I Only Exist
TTITLE9=Annie's Boy
TTITLE10=Things Will Get Better
TTITLE11=Green Pastures in the Sky
EXTD=
EXTT0=
EXTT1=
EXTT2=
EXTT3=
EXTT4=
EXTT5=
EXTT6=
EXTT7=
EXTT8=
EXTT9=
EXTT10=
EXTT11=
PLAYORDER=
